<?xml version="1.0" encoding="utf-8"?>
<!-- Generator: Adobe Illustrator 15.1.0, SVG Export Plug-In . SVG Version: 6.00 Build 0)  -->
<!DOCTYPE svg PUBLIC "-//W3C//DTD SVG 1.1//EN" "http://www.w3.org/Graphics/SVG/1.1/DTD/svg11.dtd">
<svg version="1.1" xmlns="http://www.w3.org/2000/svg" xmlns:xlink="http://www.w3.org/1999/xlink" x="0px" y="0px" width="250px"
	 height="242px" viewBox="0 0 250 242" enable-background="new 0 0 250 242" xml:space="preserve">
<g id="Layer_1" display="none">
	<path display="inline" fill-rule="evenodd" clip-rule="evenodd" fill="#7DCAC6" d="M248.969,242.453c-82.491,0-164.982,0-247.476,0
		c12.144-41.13,55.112-51.441,97.445-62.382c2.676-8.59,2.699-23.599-0.516-32.485c-2.228-6.157-10.196-10.527-14.438-15.98
		c-1.984-2.553-3.975-5.725-6.186-8.766C57.674,95.178,57.773,40.585,81.922,17.662c8.597-8.159,21.469-14.12,38.668-14.951
		c38.34-1.853,67.099,16.622,69.601,51.041c0.942,12.884-1.082,25.935-4.123,37.638c-3.529,13.594-9.953,23.752-12.889,38.671
		c-5.308,5.688-11.138,10.859-15.98,17.012c-0.887,10.674-4.521,25.603,0.513,34.545
		C196.646,193.383,234.166,206.56,248.969,242.453z M152.043,65.095c-2.714,0.121-5.361-2.525-7.22-1.546
		c1.062,3.922,2.93,9.781,2.578,13.406c-6.018-2.062-11.128-5.027-17.014-7.22c-0.332,2.246,0.67,5.828-0.519,7.22
		c-5.188-4.048-9.896-7.21-15.98-11.859c-3.97-3.034-11.102-11.525-16.5-11.344C85.976,54.139,83.876,78.76,82.955,94.483
		c-0.445,7.605,0.126,11.948,1.546,19.591c0.821,4.416,1.367,10.664,2.578,13.408c1.224,2.769,6.193,6.429,9.282,9.793
		c3.22,3.509,6.762,6.504,9.795,9.278c4.418,4.048,15.066,16.696,22.169,16.499c6.293-0.17,17.083-11.927,21.654-16.499
		c2.77-2.769,6.521-6.001,9.798-9.278c3.369-3.369,8.006-7.331,9.279-10.312c1.506-3.52,1.238-8.904,2.064-13.402
		c2.482-13.602,5.131-27.143,4.637-43.31c-8.811-9.06-17.249-18.498-26.292-27.324C151.958,49.879,157.093,57.63,152.043,65.095z
		 M127.81,167.695c-10.001-0.046-15.522-11.051-23.2-15.468c-0.03-0.543-0.662-0.407-0.516,0.515
		c0.878,13.267,3.489,23.175-1.548,31.452c-2.452,4.033-10.09,7.114-11.341,13.403c-1.419,7.134,2.736,12.124,6.186,14.953
		c15.218,12.477,54.155,11.58,64.965-3.61c8.338-11.716-3.836-17.602-8.252-24.232c-5.981-8.981-3.272-20.074-2.06-32.48
		C144.466,155.471,138.143,167.746,127.81,167.695z"/>
</g>
<g id="Layer_2">
	<g>
		<path fill-rule="evenodd" clip-rule="evenodd" fill="#6BC5AC" d="M216.101,99.077c-3.949,3.747-8.161,4.846-12.165,8.11
			c-5.271,4.293-13.458,12.605-12.165,19.26c1.202,6.167,13.012,6.207,13.684,12.16c1.04,9.202-18.887,16.334-19.767,24.836
			c-0.298,2.9,1.544,4.262,2.028,7.098c-15.451,2.099-27.324-3.296-32.942-12.67c-1.455,7.691-1.802,19.05,1.52,24.831
			c39.036,10.636,74.943,24.4,89.707,59.298c-81.09,0-162.18,0-243.273,0c11.938-40.432,54.176-50.567,95.791-61.322
			c1.63-3.271,1.882-7.914,2.027-12.67c-8.219-0.233-19.439,5.711-30.917,4.558c-7.454-0.747-18.263-8.275-18.245-13.685
			c0.023-7.266,10.059-7.276,14.697-11.151c-11-2.093-27.472-7.255-22.3-23.312c2.465-7.656,15.321-10.144,16.219-19.258
			c0.683-6.946-7.058-11.836-11.151-18.246c-4.015-6.288-10.473-19.112-6.083-29.396c1.856-4.348,8.015-5.989,10.644-10.644
			c3.546-6.278,3.231-14.274,5.068-21.287c1.504-5.742,4.333-13.04,8.617-17.231c11.936-11.684,35.913-6.405,53.216,0.507
			c11.034-4.685,19.953-10.361,36.999-8.617c26.846,2.75,37.313,28.711,45.108,53.218C207.444,69.272,213.997,85.385,216.101,99.077
			z M82.297,103.639c1.262,8.246,2.274,20.161,4.561,25.343c1.292,2.925,6.565,6.841,9.125,9.626
			c3.291,3.589,6.468,6.207,9.629,9.122c4.273,3.949,14.776,16.412,21.792,16.219c2.717-0.073,8.518-4.523,11.655-7.092
			c8.013-6.563,12.373-11.359,19.263-18.249c2.896-2.895,8.048-7.616,9.121-10.136c1.797-4.202,1.698-10.366,2.534-15.205
			c0.896-5.169,1.777-10.185,2.535-15.204c-1.574-0.44-4.88,3.512-8.108,1.522c-2.514-5.089-0.281-14.924-4.058-18.752
			c-2.955-1.201-7.623,0.43-11.15-0.508c-11.459-3.046-8.395-20.582-14.695-27.875c-10.03-11.606-39.429,2.779-48.149-11.15
			C78.459,57.533,79.073,82.568,82.297,103.639z M126.899,168.513c-9.842-0.046-15.215-10.895-22.808-15.205
			c-0.03-0.535-0.65-0.401-0.507,0.504c1.097,12.834,3.324,22.955-1.521,30.92c-2.49,4.093-9.919,6.987-11.148,13.174
			c-1.393,7.004,2.685,11.914,6.08,14.7c14.917,12.23,53.229,11.384,63.861-3.549c8.235-11.576-3.776-17.312-8.111-23.82
			c-5.861-8.805-3.271-19.812-2.024-31.929C143.315,156.495,137.001,168.562,126.899,168.513z"/>
	</g>
</g>
</svg>
