<?xml version="1.0" encoding="utf-8"?>
<!-- Generator: Adobe Illustrator 16.0.0, SVG Export Plug-In . SVG Version: 6.00 Build 0)  -->
<!DOCTYPE svg PUBLIC "-//W3C//DTD SVG 1.1//EN" "http://www.w3.org/Graphics/SVG/1.1/DTD/svg11.dtd">
<svg version="1.1" id="Layer_1" xmlns="http://www.w3.org/2000/svg" xmlns:xlink="http://www.w3.org/1999/xlink" x="0px" y="0px"
	 width="120.889px" height="39.137px" viewBox="0 4.014 120.889 39.137" enable-background="new 0 4.014 120.889 39.137"
	 xml:space="preserve">
<g enable-background="new    ">
	<path fill="#FFFFFF" d="M8.662,35.258C8.383,34.76,8.029,34.394,7.6,34.161s-0.926-0.35-1.491-0.35c-0.433,0-0.838,0.09-1.217,0.27
		s-0.71,0.437-0.992,0.769c-0.282,0.333-0.506,0.736-0.668,1.213c-0.163,0.476-0.245,1.006-0.245,1.591
		c0,0.578,0.082,1.101,0.245,1.565c0.163,0.467,0.388,0.862,0.673,1.192c0.286,0.329,0.617,0.582,0.993,0.758
		c0.375,0.176,0.779,0.266,1.212,0.266c0.64,0,1.194-0.155,1.666-0.465c0.473-0.31,0.849-0.764,1.127-1.361l1.536,0.759
		c-0.2,0.425-0.445,0.808-0.737,1.146c-0.292,0.34-0.624,0.629-0.993,0.867c-0.369,0.239-0.775,0.425-1.217,0.555
		c-0.442,0.13-0.91,0.193-1.402,0.193c-0.718,0-1.381-0.135-1.99-0.402c-0.607-0.271-1.134-0.647-1.576-1.134
		c-0.441-0.485-0.787-1.062-1.031-1.734c-0.246-0.672-0.369-1.407-0.369-2.205s0.129-1.533,0.389-2.205
		c0.26-0.671,0.615-1.248,1.068-1.73c0.451-0.481,0.979-0.858,1.586-1.132c0.604-0.272,1.253-0.409,1.944-0.409
		c0.652,0,1.27,0.113,1.852,0.34s1.092,0.567,1.531,1.026h1.047v1.716L8.662,35.258L8.662,35.258z"/>
	<path fill="#FFFFFF" d="M12.273,27.317h3.353v13.807h1.557v1.716h-4.908v-1.716h1.496V29.033h-1.496L12.273,27.317L12.273,27.317z"
		/>
	<path fill="#FFFFFF" d="M18.917,32.505h3.372v8.619h1.556v1.716h-4.908v-1.716h1.478v-6.902h-1.496L18.917,32.505L18.917,32.505z
		 M20.064,28.844c0-0.173,0.035-0.338,0.105-0.493c0.069-0.156,0.163-0.292,0.279-0.409c0.115-0.116,0.254-0.209,0.413-0.279
		c0.16-0.069,0.329-0.104,0.51-0.104c0.173,0,0.337,0.034,0.494,0.104c0.155,0.07,0.292,0.163,0.408,0.279
		c0.116,0.117,0.209,0.253,0.279,0.409c0.07,0.155,0.104,0.32,0.104,0.493c0,0.181-0.035,0.35-0.104,0.51
		c-0.07,0.159-0.163,0.301-0.279,0.424s-0.253,0.22-0.408,0.289c-0.156,0.069-0.321,0.104-0.494,0.104
		c-0.181,0-0.35-0.034-0.51-0.104c-0.159-0.069-0.298-0.166-0.413-0.289c-0.117-0.123-0.21-0.265-0.279-0.424
		C20.1,29.192,20.064,29.023,20.064,28.844z"/>
	<path fill="#FFFFFF" d="M33.013,35.258c-0.279-0.498-0.633-0.863-1.062-1.097c-0.43-0.233-0.927-0.35-1.491-0.35
		c-0.434,0-0.838,0.09-1.217,0.27c-0.38,0.18-0.71,0.437-0.992,0.769c-0.283,0.333-0.506,0.736-0.668,1.213
		c-0.163,0.476-0.245,1.006-0.245,1.591c0,0.578,0.082,1.101,0.245,1.565c0.163,0.467,0.387,0.862,0.673,1.192
		c0.286,0.329,0.617,0.582,0.993,0.758c0.375,0.176,0.778,0.266,1.212,0.266c0.639,0,1.193-0.155,1.666-0.465
		c0.472-0.31,0.848-0.764,1.127-1.361l1.536,0.759c-0.2,0.425-0.446,0.808-0.738,1.146c-0.292,0.34-0.624,0.629-0.993,0.867
		c-0.369,0.239-0.774,0.425-1.217,0.555s-0.91,0.193-1.402,0.193c-0.718,0-1.381-0.135-1.989-0.402
		c-0.608-0.271-1.135-0.647-1.576-1.134c-0.442-0.485-0.787-1.062-1.032-1.734c-0.246-0.672-0.369-1.407-0.369-2.205
		s0.129-1.533,0.389-2.205c0.261-0.671,0.615-1.248,1.068-1.73c0.452-0.481,0.98-0.858,1.586-1.132
		c0.605-0.272,1.253-0.409,1.945-0.409c0.651,0,1.269,0.113,1.851,0.34s1.092,0.567,1.531,1.026h1.047v1.716L33.013,35.258
		L33.013,35.258z"/>
	<path fill="#FFFFFF" d="M36.625,27.317h3.641v1.716h-0.02v7.722h1.796l2.454-2.533h-0.619v-1.717h3.92v1.717H46.49l-3.144,3.241
		l3.432,3.661h1.247v1.716h-2.185l-4.23-4.618h-1.366v2.902h0.857v1.716h-4.419v-1.716h1.696V29.033h-1.755L36.625,27.317
		L36.625,27.317z"/>
	<path fill="#FFFFFF" d="M51.289,37.912c0,0.292,0.021,0.561,0.064,0.803c0.043,0.243,0.104,0.475,0.186,0.693
		c0.246,0.665,0.64,1.166,1.182,1.501c0.542,0.336,1.155,0.504,1.84,0.504c0.539,0,1.062-0.074,1.571-0.225
		c0.509-0.149,1.042-0.384,1.601-0.703l0.749,1.268c-0.679,0.465-1.359,0.812-2.045,1.037c-0.685,0.227-1.396,0.339-2.135,0.339
		c-0.698,0-1.345-0.115-1.94-0.349c-0.595-0.233-1.106-0.579-1.535-1.038c-0.43-0.459-0.766-1.03-1.009-1.716
		c-0.242-0.686-0.363-1.482-0.363-2.395c0-0.737,0.103-1.436,0.309-2.091c0.206-0.653,0.514-1.227,0.923-1.716
		c0.409-0.488,0.916-0.876,1.521-1.162c0.604-0.285,1.31-0.429,2.114-0.429c0.778,0,1.429,0.118,1.95,0.354
		c0.522,0.235,0.948,0.55,1.277,0.938s0.579,0.833,0.749,1.332c0.169,0.498,0.288,1.007,0.354,1.525
		c0.033,0.254,0.056,0.51,0.065,0.769c0.01,0.26,0.015,0.513,0.015,0.759L51.289,37.912L51.289,37.912z M54.192,33.792
		c-0.432,0-0.81,0.062-1.132,0.186s-0.597,0.299-0.823,0.527c-0.226,0.229-0.407,0.512-0.544,0.844
		c-0.136,0.333-0.237,0.704-0.304,1.116h5.357c-0.027-0.386-0.088-0.74-0.186-1.066c-0.097-0.325-0.245-0.608-0.443-0.849
		c-0.199-0.238-0.456-0.426-0.769-0.559C55.037,33.858,54.651,33.792,54.192,33.792z"/>
	<path fill="#FFFFFF" d="M68.688,34.689h-1.896v-0.64c-0.219,0-0.443,0.042-0.672,0.125c-0.23,0.083-0.445,0.209-0.646,0.38
		c-0.2,0.17-0.373,0.386-0.522,0.647c-0.15,0.262-0.259,0.573-0.324,0.933v4.988h1.756v1.716h-5.128v-1.716h1.427l0.01-6.903h-1.437
		v-1.716h3.302v1.428c0.119-0.214,0.254-0.411,0.404-0.595c0.149-0.183,0.315-0.343,0.498-0.479
		c0.184-0.136,0.387-0.242,0.608-0.318c0.224-0.077,0.464-0.115,0.724-0.115c0.346,0,0.672,0,0.979,0
		c0.306,0,0.611,0.008,0.918,0.021L68.688,34.689L68.688,34.689z"/>
	<path fill="#FFFFFF" d="M75.062,41.692l5.237-7.643h-3.302v1.457h-1.835v-3.003h7.392v1.178l-5.228,7.602h3.531v-1.756h1.926v3.312
		h-7.723L75.062,41.692L75.062,41.692z"/>
	<path fill="#FFFFFF" d="M84.38,37.672c0.006-0.816,0.138-1.562,0.394-2.233s0.613-1.248,1.072-1.73
		c0.459-0.481,1.004-0.854,1.637-1.111c0.631-0.261,1.326-0.391,2.085-0.391c0.766,0,1.465,0.13,2.101,0.391
		c0.635,0.259,1.179,0.627,1.631,1.103s0.805,1.049,1.058,1.721s0.379,1.416,0.379,2.234c0,0.805-0.126,1.545-0.379,2.22
		s-0.604,1.255-1.058,1.741c-0.452,0.485-0.996,0.862-1.631,1.132c-0.636,0.271-1.335,0.404-2.101,0.404
		c-0.777,0-1.482-0.134-2.114-0.399c-0.633-0.265-1.175-0.64-1.626-1.122c-0.452-0.481-0.806-1.06-1.059-1.73
		C84.516,39.226,84.386,38.483,84.38,37.672z M86.345,37.672c0,0.594,0.085,1.128,0.254,1.606c0.17,0.479,0.402,0.887,0.699,1.222
		c0.295,0.336,0.638,0.597,1.027,0.778c0.389,0.184,0.803,0.273,1.241,0.273c0.458,0,0.887-0.09,1.281-0.27
		c0.396-0.179,0.74-0.438,1.033-0.772c0.292-0.336,0.521-0.742,0.688-1.223c0.167-0.479,0.25-1.018,0.25-1.616
		c0-0.625-0.083-1.18-0.25-1.666c-0.166-0.484-0.394-0.891-0.683-1.217c-0.29-0.325-0.634-0.571-1.033-0.738
		c-0.397-0.166-0.828-0.249-1.286-0.249c-0.438,0-0.854,0.083-1.241,0.249c-0.391,0.167-0.732,0.413-1.027,0.738
		c-0.297,0.326-0.529,0.731-0.699,1.217C86.43,36.492,86.345,37.047,86.345,37.672z"/>
	<path fill="#FFFFFF" d="M103.543,41.124H105v-4.719c0-0.791-0.201-1.392-0.604-1.801c-0.402-0.409-0.979-0.613-1.73-0.613
		c-0.433,0-0.867,0.104-1.308,0.31c-0.438,0.206-0.854,0.463-1.247,0.769v6.056h1.457v1.716H96.74v-1.716h1.437v-6.902H96.74v-1.717
		h3.292v1.218h0.02c0.22-0.192,0.454-0.376,0.703-0.55c0.25-0.173,0.511-0.321,0.783-0.447c0.271-0.127,0.557-0.228,0.854-0.301
		c0.296-0.072,0.606-0.108,0.934-0.108c0.552,0,1.051,0.076,1.495,0.229c0.445,0.152,0.824,0.387,1.139,0.698
		c0.312,0.312,0.554,0.713,0.723,1.202c0.17,0.488,0.255,1.064,0.255,1.729v4.948h1.438v1.716h-4.829v-1.716H103.543z"/>
	<path fill="#FFFFFF" d="M112.122,37.912c0,0.292,0.021,0.561,0.064,0.803c0.043,0.243,0.104,0.475,0.186,0.693
		c0.246,0.665,0.64,1.166,1.182,1.501c0.542,0.336,1.156,0.504,1.841,0.504c0.539,0,1.062-0.074,1.571-0.225
		c0.509-0.149,1.043-0.384,1.602-0.703l0.748,1.268c-0.679,0.465-1.359,0.812-2.045,1.037c-0.686,0.227-1.396,0.339-2.135,0.339
		c-0.699,0-1.346-0.115-1.94-0.349c-0.596-0.233-1.106-0.579-1.536-1.038s-0.766-1.03-1.008-1.716s-0.363-1.482-0.363-2.395
		c0-0.737,0.103-1.436,0.309-2.091c0.207-0.653,0.515-1.227,0.923-1.716c0.409-0.488,0.916-0.876,1.521-1.162
		c0.604-0.285,1.311-0.429,2.115-0.429c0.777,0,1.428,0.118,1.949,0.354c0.522,0.235,0.948,0.55,1.277,0.938
		s0.578,0.833,0.748,1.332c0.169,0.498,0.287,1.007,0.354,1.525c0.033,0.254,0.057,0.51,0.065,0.769
		c0.01,0.26,0.015,0.513,0.015,0.759L112.122,37.912L112.122,37.912z M115.025,33.792c-0.433,0-0.81,0.062-1.132,0.186
		c-0.323,0.123-0.598,0.299-0.823,0.527c-0.227,0.229-0.406,0.512-0.544,0.844c-0.136,0.333-0.236,0.704-0.304,1.116h5.356
		c-0.026-0.386-0.088-0.74-0.186-1.066c-0.097-0.325-0.244-0.608-0.442-0.849c-0.2-0.238-0.456-0.426-0.77-0.559
		C115.868,33.858,115.484,33.792,115.025,33.792z"/>
</g>
<g>
	<path fill="#2DEAE0" d="M54.828,10.755c-0.638-0.522-0.525-1.182,0.25-1.464l13.225-4.806c0.774-0.282,1.203,0.13,0.949,0.916
		l-4.318,13.392c-0.253,0.786-0.906,0.921-1.449,0.301l-2.898-3.297c-0.544-0.62-1.512-1.555-2.149-2.078L54.828,10.755z"/>
</g>
<g>
	<path fill="#2DEAE0" d="M53.864,17.52c-0.287,0.295-0.28,0.771,0.016,1.06l1.381,1.342c0.296,0.288,0.773,0.281,1.062-0.015
		l4.468-4.595c0.289-0.295,0.281-0.772-0.016-1.061l-1.381-1.342c-0.296-0.288-0.772-0.281-1.062,0.015L53.864,17.52z"/>
</g>
<g>
	<path fill="none" stroke="#FCFCFC" stroke-width="0.5" stroke-miterlimit="10" d="M43.258,13.129c-0.292,0.291-0.768,0.291-1.06,0
		l-0.289-0.29c-0.292-0.291-0.292-0.768,0-1.06l5.182-5.182c0.292-0.292,0.769-0.292,1.06,0l0.29,0.29
		c0.292,0.292,0.292,0.768,0,1.06L43.258,13.129z"/>
</g>
<g>
	<path fill="none" stroke="#FCFCFC" stroke-width="0.5" stroke-miterlimit="10" d="M43.258,11.607c-0.292-0.292-0.768-0.292-1.06,0
		l-0.289,0.29c-0.292,0.292-0.292,0.769,0,1.06l5.182,5.182c0.292,0.292,0.769,0.292,1.06,0l0.29-0.29
		c0.292-0.292,0.292-0.769,0-1.061L43.258,11.607z"/>
</g>
<g>
	<path fill="none" stroke="#FCFCFC" stroke-width="0.5" stroke-miterlimit="10" d="M41.339,13.524c-0.292,0.292-0.77,0.292-1.062,0
		l-0.702-0.703c-0.292-0.292-0.292-0.77,0-1.061l7.099-7.1c0.292-0.292,0.769-0.292,1.06,0l0.704,0.704
		c0.292,0.292,0.292,0.769,0,1.06L41.339,13.524z"/>
</g>
<g>
	<path fill="none" stroke="#FCFCFC" stroke-width="0.5" stroke-miterlimit="10" d="M41.339,11.21c-0.292-0.292-0.77-0.292-1.062,0
		l-0.702,0.704c-0.292,0.292-0.292,0.77,0,1.062l7.099,7.099c0.292,0.292,0.769,0.292,1.06,0l0.704-0.704
		c0.292-0.292,0.292-0.769,0-1.06L41.339,11.21z"/>
</g>
<g>
	<path fill="none" stroke="#FCFCFC" stroke-width="0.5" stroke-miterlimit="10" d="M79.955,13.524c0.291,0.292,0.768,0.292,1.06,0
		l0.703-0.703c0.292-0.292,0.292-0.77,0-1.061l-7.098-7.1c-0.293-0.292-0.771-0.292-1.062,0l-0.702,0.704
		c-0.293,0.292-0.293,0.769,0,1.06L79.955,13.524z"/>
</g>
<g>
	<path fill="none" stroke="#FCFCFC" stroke-width="0.5" stroke-miterlimit="10" d="M79.955,11.21c0.291-0.292,0.768-0.292,1.06,0
		l0.703,0.704c0.292,0.292,0.292,0.77,0,1.062l-7.098,7.099c-0.293,0.292-0.771,0.292-1.062,0l-0.702-0.704
		c-0.293-0.292-0.293-0.769,0-1.06L79.955,11.21z"/>
</g>
<g>
	<path fill="none" stroke="#FCFCFC" stroke-width="0.5" stroke-miterlimit="10" d="M78.301,11.607c0.293-0.292,0.77-0.292,1.061,0
		l0.291,0.29c0.291,0.292,0.291,0.769,0,1.06l-5.182,5.182c-0.293,0.292-0.77,0.292-1.061,0l-0.29-0.29
		c-0.292-0.292-0.292-0.769,0-1.061L78.301,11.607z"/>
</g>
<g>
	<path fill="none" stroke="#FCFCFC" stroke-width="0.5" stroke-miterlimit="10" d="M78.301,13.129c0.293,0.291,0.77,0.291,1.061,0
		l0.291-0.29c0.291-0.291,0.291-0.768,0-1.06l-5.182-5.182c-0.293-0.292-0.77-0.292-1.061,0l-0.29,0.29
		c-0.292,0.292-0.292,0.768,0,1.06L78.301,13.129z"/>
</g>
</svg>
